<svg width="472" height="484" viewBox="0 0 472 484" fill="none" xmlns="http://www.w3.org/2000/svg">
<path d="M297 175V120.571L410.963 6.86478C413.354 4.4754 416.007 2.73393 418.92 1.64035C421.834 0.546777 424.804 0 427.832 0C430.73 0 433.695 0.597284 436.726 1.79187C439.757 2.98646 442.505 4.77844 444.97 7.16782L464.655 26.9707C467.082 29.4655 468.912 32.1657 470.147 35.0713C471.382 37.9768 472 40.9325 472 43.9383C472 46.983 471.382 50.059 470.147 53.1662C468.912 56.2733 467.081 59.0396 464.655 61.465L351.47 175H297ZM318.625 153.392H342.517L418.044 77.9213L406.095 66.05L394.02 54.3498L318.625 129.214V153.392Z" fill="#3F2305"/>
<mask id="mask0_57_17957" style="mask-type:alpha" maskUnits="userSpaceOnUse" x="-40" y="0" width="512" height="512">
<path d="M-40 0H472V512H-40V0Z" fill="#D9D9D9"/>
</mask>
<g mask="url(#mask0_57_17957)">
<path d="M83.8683 436.027C74.0485 436.027 65.611 432.499 58.5558 425.444C51.5004 418.389 47.9727 409.951 47.9727 400.131V132.866C47.9727 122.976 51.5004 114.478 58.5558 107.373C65.611 100.267 74.0485 96.7148 83.8683 96.7148H267.128L231.232 132.866H83.8683V400.131H351.133V251.921L387.285 215.768V400.131C387.285 409.951 383.732 418.389 376.627 425.444C369.521 432.499 361.023 436.027 351.133 436.027H83.8683Z" fill="#3F2305"/>
</g>
<mask id="mask1_57_17957" style="mask-type:alpha" maskUnits="userSpaceOnUse" x="109" y="150" width="218" height="218">
<rect x="109" y="150" width="218" height="218" fill="#D9D9D9"/>
</mask>
<g mask="url(#mask1_57_17957)">
<path d="M178.487 344.5C167.57 344.5 158.369 340.753 150.884 333.26C143.399 325.766 139.656 316.645 139.656 305.896V205.525H293.392C299.262 205.525 304.287 207.637 308.467 211.859C312.647 216.082 314.737 221.086 314.737 226.871V263.204C314.737 269.071 312.647 274.095 308.467 278.277C304.287 282.459 299.262 284.55 293.392 284.55H274.771V305.896C274.771 316.645 270.973 325.766 263.378 333.26C255.783 340.753 246.561 344.5 235.712 344.5H178.487ZM274.771 263.204H293.165V226.871H274.771V263.204Z" fill="#3F2305"/>
</g>
</svg>
